<?xml version="1.0" encoding="utf-8"?>
<!-- Generator: Adobe Illustrator 22.1.0, SVG Export Plug-In . SVG Version: 6.00 Build 0)  -->
<svg version="1.1" id="レイヤー_1" xmlns="http://www.w3.org/2000/svg" xmlns:xlink="http://www.w3.org/1999/xlink" x="0px"
	 y="0px" width="32px" height="32px" viewBox="0 0 32 32" style="enable-background:new 0 0 32 32;" xml:space="preserve">
<style type="text/css">
	.st0{fill:#75C12B;}
	.st1{fill:none;stroke:#75C12B;stroke-width:0.5806;stroke-linecap:round;stroke-linejoin:round;stroke-miterlimit:10;}
</style>
<g>
	<g id="_x32_">
		<g>
			<path class="st0" d="M9.9,15.1c0-1.8,1.5-3.3,3.3-3.3s3.3,1.5,3.3,3.3s-1.5,3.3-3.3,3.3S9.9,16.9,9.9,15.1z M14.6,18.6h-2.8
				c-2.3,0-4.2,1.9-4.2,4.2v3.4v0.1l0.2,0.1c2.2,0.7,4.1,0.9,5.7,0.9c3.1,0,4.9-0.9,5-0.9l0.2-0.1l0,0v-3.4
				C18.8,20.5,16.9,18.6,14.6,18.6z M18.8,13.5c1.8,0,3.3-1.5,3.3-3.3s-1.5-3.3-3.3-3.3s-3.3,1.5-3.3,3.3C15.5,12,17,13.5,18.8,13.5
				z M20.2,13.7h-2.8c-0.1,0-0.1,0-0.2,0c0.3,0.5,0.4,1.1,0.4,1.7c0,1.2-0.5,2.2-1.3,2.9c1.8,0.5,3.2,2.1,3.5,4
				c2.7-0.1,4.2-0.9,4.3-0.9l0.2-0.1l0,0v-3.4C24.4,15.6,22.5,13.7,20.2,13.7z"/>
		</g>
	</g>
	<g>
		<path class="st1" d="M4.8,13c0-3.1,2.5-5.6,5.6-5.6"/>
		<line class="st1" x1="4.8" y1="9.3" x2="6.7" y2="11.1"/>
		<line class="st1" x1="6.7" y1="7.4" x2="8.6" y2="9.2"/>
	</g>
	<g>
		<path class="st1" d="M21.5,3.8c3.1,0,5.6,2.5,5.6,5.6"/>
		<line class="st1" x1="25.2" y1="3.8" x2="23.4" y2="5.6"/>
		<line class="st1" x1="27.2" y1="5.7" x2="25.3" y2="7.5"/>
	</g>
</g>
</svg>
