<?xml version="1.0" encoding="utf-8"?>
<!-- Generator: Adobe Illustrator 22.1.0, SVG Export Plug-In . SVG Version: 6.00 Build 0)  -->
<svg version="1.1" id="レイヤー_1" xmlns="http://www.w3.org/2000/svg" xmlns:xlink="http://www.w3.org/1999/xlink" x="0px"
	 y="0px" width="32px" height="32px" viewBox="0 0 32 32" style="enable-background:new 0 0 32 32;" xml:space="preserve">
<style type="text/css">
	.st0{fill:#FF7800;}
</style>
<g id="_x34_">
	<g>
		<path class="st0" d="M12.4,6.7c0-2,1.6-3.6,3.6-3.6s3.6,1.6,3.6,3.6S18,10.3,16,10.3S12.4,8.7,12.4,6.7z M17.7,12.8
			c0-0.8,0.3-1.5,0.7-2.1c-0.3-0.1-0.6-0.1-0.9-0.1h-3.1c-0.3,0-0.6,0-0.9,0.1c0.5,0.6,0.7,1.4,0.7,2.3c0.6-0.3,1.2-0.5,1.9-0.5
			C16.7,12.4,17.3,12.6,17.7,12.8z M18.3,13.1c1.1,0.7,1.8,1.8,1.9,3.1c0.4,0.2,0.9,0.3,1.4,0.3c1.8,0,3.3-1.5,3.3-3.3
			s-1.5-3.3-3.3-3.3C19.9,9.8,18.4,11.3,18.3,13.1z M16.2,19.9c1.8,0,3.3-1.5,3.3-3.3s-1.5-3.3-3.3-3.3s-3.3,1.5-3.3,3.3
			C12.8,18.4,14.3,19.9,16.2,19.9z M17.6,20.1h-2.8c-2.4,0-4.3,1.9-4.3,4.3v3.5V28l0.2,0.1c2.2,0.7,4.2,0.9,5.8,0.9
			c3.1,0,5-0.9,5.1-1l0.2-0.1l0,0v-3.5C21.8,22.1,19.9,20.1,17.6,20.1z M23.1,16.7h-2.8c0,1.1-0.5,2.1-1.3,2.9
			c2.1,0.6,3.6,2.6,3.6,4.8v1.1c2.8-0.1,4.4-0.9,4.5-0.9l0.2-0.1l0,0V21C27.4,18.6,25.4,16.7,23.1,16.7z M10.3,16.5
			c0.7,0,1.3-0.2,1.8-0.5c0.2-1.1,0.7-2,1.5-2.6c0-0.1,0-0.1,0-0.2c0-1.8-1.5-3.3-3.3-3.3C8.5,9.8,7,11.3,7,13.1
			C7,15,8.5,16.5,10.3,16.5z M13.3,19.6c-0.8-0.7-1.2-1.7-1.3-2.8c-0.1,0-0.2,0-0.3,0H8.9c-2.4,0-4.3,1.9-4.3,4.3v3.5v0.1l0.2,0.1
			c1.8,0.6,3.4,0.8,4.8,0.9v-1C9.7,22.1,11.2,20.2,13.3,19.6z"/>
	</g>
</g>
</svg>
