<?xml version="1.0" encoding="utf-8"?>
<!-- Generator: Adobe Illustrator 22.1.0, SVG Export Plug-In . SVG Version: 6.00 Build 0)  -->
<svg version="1.1" id="レイヤー_1" xmlns="http://www.w3.org/2000/svg" xmlns:xlink="http://www.w3.org/1999/xlink" x="0px"
	 y="0px" width="32px" height="32px" viewBox="0 0 32 32" style="enable-background:new 0 0 32 32;" xml:space="preserve">
<style type="text/css">
	.st0{fill:#FFBC00;}
</style>
<g id="_x33_">
	<g>
		<path class="st0" d="M18.3,9.9c1,0.6,1.7,1.7,1.9,3c0.4,0.2,0.9,0.3,1.4,0.3c1.8,0,3.2-1.5,3.2-3.2c0-1.8-1.5-3.2-3.2-3.2
			C19.8,6.7,18.3,8.1,18.3,9.9z M16.2,16.5c1.8,0,3.2-1.5,3.2-3.2S18,10,16.2,10s-3.3,1.5-3.3,3.2S14.4,16.5,16.2,16.5z M17.5,16.8
			h-2.8c-2.3,0-4.2,1.9-4.2,4.2v3.4v0.1l0.2,0.1c2.2,0.7,4.1,0.9,5.7,0.9c3.1,0,4.8-0.9,4.9-0.9l0.2-0.1l0,0v-3.4
			C21.7,18.6,19.8,16.8,17.5,16.8z M22.9,13.4h-2.7c0,1.1-0.5,2.1-1.2,2.8c2,0.6,3.5,2.5,3.5,4.7v1c2.7-0.1,4.3-0.9,4.4-0.9l0.2-0.1
			l0,0v-3.4C27.1,15.3,25.2,13.4,22.9,13.4z M10.5,13.2c0.6,0,1.2-0.2,1.7-0.5c0.2-1,0.7-1.9,1.5-2.6c0-0.1,0-0.1,0-0.2
			c0-1.8-1.5-3.2-3.2-3.2c-1.8,0-3.2,1.5-3.2,3.2C7.2,11.7,8.7,13.2,10.5,13.2z M13.4,16.2c-0.7-0.7-1.2-1.7-1.2-2.8
			c-0.1,0-0.2,0-0.3,0H9.1c-2.3,0-4.2,1.9-4.2,4.2V21v0.1l0.2,0.1c1.8,0.5,3.3,0.8,4.7,0.9v-1C9.8,18.7,11.3,16.8,13.4,16.2z"/>
	</g>
</g>
</svg>
