<?xml version="1.0" encoding="utf-8"?>
<!-- Generator: Adobe Illustrator 22.1.0, SVG Export Plug-In . SVG Version: 6.00 Build 0)  -->
<svg version="1.1" id="レイヤー_1" xmlns="http://www.w3.org/2000/svg" xmlns:xlink="http://www.w3.org/1999/xlink" x="0px"
	 y="0px" width="32px" height="32px" viewBox="0 0 32 32" style="enable-background:new 0 0 32 32;" xml:space="preserve">
<style type="text/css">
	.st0{fill:#49C4EA;}
</style>
<g>
	<g id="_x31_">
		<g>
			<path class="st0" d="M14.1,15.8c1.8,0,3.2-1.5,3.2-3.2s-1.4-3.3-3.2-3.3s-3.3,1.5-3.3,3.2S12.3,15.8,14.1,15.8z M15.5,16h-2.8
				c-2.3,0-4.2,1.9-4.2,4.2v3.4v0.1l0.2,0.1c2.2,0.7,4.1,0.9,5.7,0.9c3.1,0,4.8-0.9,4.9-0.9l0.2-0.1l0,0v-3.4
				C19.6,17.8,17.8,16,15.5,16z"/>
		</g>
	</g>
	<g>
		<path class="st0" d="M23.3,10.8c0.6-0.1,1-0.6,1-1.1c0,0,0-0.1,0-0.1l-0.8-2.6c0.2,0,0.4,0.1,0.8,0.3c0.6,0.4,0.9,0.9,0.9,0.9
			c0.2-0.5-0.3-1.2-0.7-1.4c-0.3-0.2-0.9-0.5-1.2-0.7l-0.1-0.5c0-0.1-0.1-0.2-0.2-0.1c-0.1,0-0.2,0.1-0.1,0.2l1,3.4
			c-0.2-0.1-0.5-0.1-0.8,0c-0.6,0.1-1.1,0.7-1,1.1C22.1,10.7,22.7,11,23.3,10.8z"/>
	</g>
	<g>
		<path class="st0" d="M21.4,11.3c-0.2,0.3-0.4,0.4-0.5,0.5c-0.3,0.1-0.5,0.1-0.7,0.1c-0.2,0-0.5-0.1-0.7,0
			c-0.2,0.1-0.3,0.2-0.4,0.3c-0.1,0.1-0.1,0.1-0.1,0.2c-0.1,0-0.2,0-0.2-0.1c0-0.1,0-0.1,0.1-0.3c0.1-0.1,0.2-0.3,0.5-0.4
			c0.2-0.1,0.5-0.1,0.7-0.1c0.4,0,0.5,0.1,0.7,0c0.2-0.1,0.3-0.2,0.4-0.3c0.1-0.1,0.1-0.2,0.1-0.2c0.1,0,0.2,0,0.2,0.1
			C21.5,11.1,21.5,11.1,21.4,11.3z"/>
	</g>
</g>
</svg>
