<?xml version="1.0" encoding="utf-8"?>
<!-- Generator: Adobe Illustrator 22.1.0, SVG Export Plug-In . SVG Version: 6.00 Build 0)  -->
<svg version="1.1" id="レイヤー_1" xmlns="http://www.w3.org/2000/svg" xmlns:xlink="http://www.w3.org/1999/xlink" x="0px"
	 y="0px" width="1000px" height="96px" viewBox="0 0 1000 96" style="enable-background:new 0 0 1000 96;" xml:space="preserve">
<style type="text/css">
	.st0{fill:#49C4EA;}
	.st1{fill:#75C12B;}
	.st2{fill:#FFBC00;}
	.st3{fill:#FF7800;}
	.st4{fill:#CE0909;}
	.st5{fill:#666666;}
	.st6{font-family:'HiraKakuPro-W3-83pv-RKSJ-H';}
	.st7{font-size:24px;}
	.st8{fill:none;stroke:#75C12B;stroke-width:1.7562;stroke-linecap:round;stroke-linejoin:round;stroke-miterlimit:10;}
</style>
<g id="レイヤー_1_1_">
	<g>
		<rect y="86" class="st0" width="200.2" height="10"/>
	</g>
	<g>
		<rect x="200" y="86" class="st1" width="200.2" height="10"/>
	</g>
	<g>
		<rect x="399.9" y="86" class="st2" width="200.2" height="10"/>
	</g>
	<g>
		<rect x="599.9" y="86" class="st3" width="200.2" height="10"/>
	</g>
	<g>
		<rect x="799.8" y="86" class="st4" width="200.2" height="10"/>
	</g>
</g>
<g id="レイヤー_3">
	<g id="_x33_">
		<g>
			<path class="st2" d="M506.5,26.5c2.8,1.7,4.8,4.8,5.4,8.5c1.1,0.6,2.5,0.8,4,0.8c5.1,0,9-4.2,9-9c0-5.1-4.2-9-9-9
				C510.7,17.4,506.5,21.4,506.5,26.5z M500.6,45.1c5.1,0,9-4.2,9-9s-4-9.3-9-9.3s-9.3,4.2-9.3,9S495.5,45.1,500.6,45.1z M504.2,46
				h-7.9c-6.5,0-11.9,5.4-11.9,11.9v9.6v0.3L485,68c6.2,2,11.6,2.5,16.1,2.5c8.8,0,13.6-2.5,13.8-2.5l0.6-0.3l0,0v-9.6
				C516.1,51.1,510.7,46,504.2,46z M519.5,36.4h-7.6c0,3.1-1.4,5.9-3.4,7.9c5.7,1.7,9.9,7.1,9.9,13.3v2.8c7.6-0.3,12.2-2.5,12.4-2.5
				l0.6-0.3l0,0V48C531.4,41.7,526,36.4,519.5,36.4z M484.5,35.8c1.7,0,3.4-0.6,4.8-1.4c0.6-2.8,2-5.4,4.2-7.3c0-0.3,0-0.3,0-0.6
				c0-5.1-4.2-9-9-9c-5.1,0-9,4.2-9,9C475.1,31.6,479.4,35.8,484.5,35.8z M492.7,44.3c-2-2-3.4-4.8-3.4-7.9c-0.3,0-0.6,0-0.8,0h-7.9
				c-6.5,0-11.9,5.4-11.9,11.9v9.6v0.3l0.6,0.3c5.1,1.4,9.3,2.3,13.3,2.5v-2.8C482.5,51.4,486.7,46,492.7,44.3z"/>
		</g>
	</g>
	<g id="_x34_">
		<g>
			<path class="st3" d="M691,16.5c0-5,4-9.1,9.1-9.1s9.1,4,9.1,9.1s-4,9.1-9.1,9.1S691,21.5,691,16.5z M704.4,31.8
				c0-2,0.8-3.8,1.8-5.3c-0.8-0.3-1.5-0.3-2.3-0.3h-7.8c-0.8,0-1.5,0-2.3,0.3c1.3,1.5,1.8,3.5,1.8,5.8c1.5-0.8,3-1.3,4.8-1.3
				C701.8,30.8,703.3,31.3,704.4,31.8z M705.9,32.6c2.8,1.8,4.5,4.5,4.8,7.8c1,0.5,2.3,0.8,3.5,0.8c4.5,0,8.3-3.8,8.3-8.3
				s-3.8-8.3-8.3-8.3C709.9,24.3,706.1,28.1,705.9,32.6z M700.6,49.7c4.5,0,8.3-3.8,8.3-8.3s-3.8-8.3-8.3-8.3s-8.3,3.8-8.3,8.3
				C692,45.9,695.8,49.7,700.6,49.7z M704.1,50.2h-7c-6,0-10.8,4.8-10.8,10.8v8.8v0.3l0.5,0.3c5.5,1.8,10.6,2.3,14.6,2.3
				c7.8,0,12.6-2.3,12.8-2.5l0.5-0.3l0,0V61C714.7,55.2,709.9,50.2,704.1,50.2z M717.9,41.6h-7c0,2.8-1.3,5.3-3.3,7.3
				c5.3,1.5,9.1,6.5,9.1,12.1v2.8c7-0.3,11.1-2.3,11.3-2.3l0.5-0.3l0,0v-8.8C728.7,46.4,723.7,41.6,717.9,41.6z M685.7,41.1
				c1.8,0,3.3-0.5,4.5-1.3c0.5-2.8,1.8-5,3.8-6.5c0-0.3,0-0.3,0-0.5c0-4.5-3.8-8.3-8.3-8.3c-4.5-0.3-8.3,3.5-8.3,8
				C677.4,37.4,681.2,41.1,685.7,41.1z M693.3,48.9c-2-1.8-3-4.3-3.3-7c-0.3,0-0.5,0-0.8,0h-7c-6,0-10.8,4.8-10.8,10.8v8.8v0.3
				l0.5,0.3c4.5,1.5,8.6,2,12.1,2.3v-2.5C684.2,55.2,688,50.4,693.3,48.9z"/>
		</g>
	</g>
	<text transform="matrix(1 0 0 1 11 54.4919)" class="st5 st6 st7">空</text>
	<g>
		<text transform="matrix(1 0 0 1 965 54.4919)" class="st5 st6 st7">混</text>
	</g>
	<path class="st4" d="M882.3,48.3c5,0,9-4,9-9s-4-9-9-9s-9,4-9,9S877.3,48.3,882.3,48.3z M886.1,48.9h-7.6
		c-6.3,0-11.5,5.2-11.5,11.5v9.3v0.1l0.6,0.2c6,1.9,11.3,2.5,15.6,2.5c8.4,0,13.3-2.4,13.6-2.6l0.6-0.3h0.1v-9.3
		C897.6,54,892.4,48.9,886.1,48.9z M866.5,39c1.8,0,3.4-0.5,4.8-1.4c0.4-2.9,2-5.4,4.2-7.1c0-0.2,0-0.3,0-0.5c0-5-4-9-9-9s-9,4-9,9
		S861.6,39,866.5,39z M874.6,47.3c-2-1.9-3.3-4.7-3.4-7.7c-0.3,0-0.6,0-0.8,0h-7.6c-6.3,0-11.5,5.2-11.5,11.5v9.3v0.1l0.6,0.2
		c4.9,1.5,9.2,2.2,12.9,2.4v-2.8C864.8,54.2,868.9,49,874.6,47.3z M921.8,28.9c2.9,1.8,4.9,4.9,5.3,8.5c1.2,0.6,2.5,0.9,3.9,0.9
		c5.1,0,9.2-4.1,9.2-9.2s-4.1-9.2-9.2-9.2C925.9,19.8,921.8,23.9,921.8,28.9z M915.7,47.7c5.1,0,9.2-4.1,9.2-9.2s-4.1-9.2-9.2-9.2
		c-5.1,0-9.2,4.1-9.2,9.2S910.7,47.7,915.7,47.7z M919.6,48.3h-7.8c-6.5,0-11.8,5.3-11.8,11.8v9.5v0.1l0.7,0.2
		c6.2,1.9,11.6,2.6,16,2.6c8.7,0,13.7-2.5,14-2.6l0.6-0.3h0.1v-9.5C931.4,53.6,926.1,48.3,919.6,48.3z M934.8,38.8h-7.7
		c-0.1,3.1-1.4,5.9-3.5,7.9c5.8,1.7,10,7.1,10,13.4V63c7.6-0.3,12-2.4,12.3-2.6l0.6-0.3h0.1v-9.5C946.6,44.1,941.3,38.8,934.8,38.8z
		 M889.5,23c0-5.2,4.2-9.3,9.3-9.3c5.2,0,9.3,4.2,9.3,9.3s-4.2,9.3-9.3,9.3C893.6,32.3,889.5,28.1,889.5,23z M891.9,33.4
		c0,0,3.8,8.1-0.7,12.8c1.7,0.9,7.6,4.5,7.6,9.2c0-4.5,6.6-9.2,7.8-9.2c-0.9-2.4-4.3-6.2-0.9-13.3C904.5,33,896.7,32.7,891.9,33.4z"
		/>
	<g>
		<g id="_x31__1_">
			<g>
				<path class="st0" d="M109.4,41.6c6.3,0,11.1-5.2,11.1-11.1S115.7,19,109.4,19C103.2,19,98,24.2,98,30.1S103.2,41.6,109.4,41.6z
					 M114.3,42.3h-9.7c-8,0-14.6,6.6-14.6,14.6v11.8V69l0.7,0.3c7.7,2.4,14.3,3.1,19.8,3.1c10.8,0,16.7-3.1,17.1-3.1l0.7-0.3l0,0
					V57.3C128.6,48.6,122.3,42.3,114.3,42.3z"/>
			</g>
		</g>
		<g>
			<path class="st0" d="M141.5,24.2c2.1-0.3,3.5-2.1,3.5-3.8V20l-2.8-9.1c0.7,0,1.4,0.3,2.8,1c2.1,1.4,3.1,3.1,3.1,3.1
				c0.7-1.7-1-4.2-2.4-4.9c-1-0.7-3.1-1.7-4.2-2.4L141.2,6c0-0.3-0.3-0.7-0.7-0.3c-0.3,0-0.7,0.3-0.3,0.7l3.5,11.8
				c-0.7-0.3-1.7-0.3-2.8,0c-2.1,0.3-3.8,2.4-3.5,3.8C137.3,23.8,139.4,24.9,141.5,24.2z"/>
		</g>
		<g>
			<path class="st0" d="M134.9,25.9c-0.7,1-1.4,1.4-1.7,1.7c-1,0.3-1.7,0.3-2.4,0.3s-1.7-0.3-2.4,0s-1,0.7-1.4,1
				c-0.3,0.3-0.3,0.3-0.3,0.7c-0.3,0-0.7,0-0.7-0.3s0-0.3,0.3-1c0.3-0.3,0.7-1,1.7-1.4c0.7-0.3,1.7-0.3,2.4-0.3c1.4,0,1.7,0.3,2.4,0
				s1-0.7,1.4-1c0.3-0.3,0.3-0.7,0.3-0.7c0.3,0,0.7,0,0.7,0.3C135.2,25.2,135.2,25.2,134.9,25.9z"/>
		</g>
	</g>
	<g>
		<g id="_x32__1_">
			<g>
				<path class="st1" d="M281.6,35.7c0-5.4,4.5-10,10-10c5.4,0,10,4.5,10,10s-4.5,10-10,10S281.6,41.1,281.6,35.7z M295.8,46.3h-8.5
					c-7,0-12.7,5.7-12.7,12.7v10.3v0.3l0.6,0.3c6.7,2.1,12.4,2.7,17.2,2.7c9.4,0,14.8-2.7,15.1-2.7l0.6-0.3l0,0V59.3
					C308.5,52,302.8,46.3,295.8,46.3z M308.5,30.8c5.4,0,10-4.5,10-10s-4.5-10-10-10s-10,4.5-10,10S303.1,30.8,308.5,30.8z
					 M312.8,31.4h-8.5c-0.3,0-0.3,0-0.6,0c0.9,1.5,1.2,3.3,1.2,5.1c0,3.6-1.5,6.7-3.9,8.8c5.4,1.5,9.7,6.4,10.6,12.1
					c8.2-0.3,12.7-2.7,13-2.7l0.6-0.3l0,0V44.1C325.5,37.2,319.7,31.4,312.8,31.4z"/>
			</g>
		</g>
		<g>
			<path class="st8" d="M266.2,29.3c0-9.4,7.6-16.9,16.9-16.9"/>
			<line class="st8" x1="266.2" y1="18.1" x2="271.9" y2="23.6"/>
			<line class="st8" x1="271.9" y1="12.4" x2="277.7" y2="17.8"/>
		</g>
		<g>
			<path class="st8" d="M316.7,1.5c9.4,0,16.9,7.6,16.9,16.9"/>
			<line class="st8" x1="327.9" y1="1.5" x2="322.4" y2="6.9"/>
			<line class="st8" x1="333.9" y1="7.2" x2="328.2" y2="12.7"/>
		</g>
	</g>
</g>
</svg>
