<?xml version="1.0" encoding="utf-8"?>
<!-- Generator: Adobe Illustrator 22.1.0, SVG Export Plug-In . SVG Version: 6.00 Build 0)  -->
<svg version="1.1" id="レイヤー_1" xmlns="http://www.w3.org/2000/svg" xmlns:xlink="http://www.w3.org/1999/xlink" x="0px"
	 y="0px" width="32px" height="32px" viewBox="0 0 32 32" style="enable-background:new 0 0 32 32;" xml:space="preserve">
<style type="text/css">
	.st0{fill:#CE0909;}
</style>
<g id="_x35__x5F_">
	<path class="st0" d="M10.4,17.7c1.7,0,3-1.3,3-3s-1.3-3-3-3s-3,1.3-3,3S8.8,17.7,10.4,17.7z M11.7,17.9H9.1c-2.1,0-3.9,1.7-3.9,3.9
		v3.1l0,0L5.5,25c2,0.6,3.8,0.8,5.2,0.8c2.8,0,4.5-0.8,4.6-0.9l0.2-0.1l0,0v-3.1C15.6,19.7,13.8,17.9,11.7,17.9z M5.1,14.6
		c0.6,0,1.1-0.2,1.6-0.5c0.1-1,0.7-1.8,1.4-2.4c0-0.1,0-0.1,0-0.2c0-1.7-1.3-3-3-3s-3,1.3-3,3C2.1,13.3,3.5,14.6,5.1,14.6z
		 M7.8,17.4c-0.7-0.7-1.1-1.6-1.1-2.6c-0.1,0-0.2,0-0.3,0H3.9c-2.1,0-3.9,1.7-3.9,3.9v3.1l0,0l0.2,0.1c1.6,0.5,3.1,0.7,4.3,0.8v-0.9
		C4.6,19.7,5.9,18,7.8,17.4z M23.7,11.2c1,0.6,1.7,1.6,1.8,2.8c0.4,0.2,0.8,0.3,1.3,0.3c1.7,0,3.1-1.4,3.1-3.1s-1.4-3.1-3.1-3.1
		C25.1,8.2,23.7,9.5,23.7,11.2z M21.6,17.5c1.7,0,3.1-1.4,3.1-3.1s-1.4-3.1-3.1-3.1s-3.1,1.4-3.1,3.1C18.6,16.2,19.9,17.5,21.6,17.5
		z M23,17.8h-2.6c-2.2,0-3.9,1.8-3.9,3.9v3.2V25l0.2,0.1c2.1,0.6,3.9,0.9,5.4,0.9c2.9,0,4.6-0.8,4.7-0.9L27,25l0,0v-3.2
		C26.9,19.5,25.1,17.8,23,17.8z M28.1,14.6h-2.6c0,1-0.5,2-1.2,2.6c1.9,0.6,3.4,2.4,3.4,4.5v1c2.6-0.1,4-0.8,4.1-0.9l0.2-0.1l0,0
		v-3.2C32,16.3,30.2,14.6,28.1,14.6z M12.8,9.2c0-1.7,1.4-3.1,3.1-3.1S19,7.5,19,9.2s-1.4,3.1-3.1,3.1C14.2,12.4,12.8,11,12.8,9.2z
		 M13.7,12.8c0,0,1.3,2.7-0.2,4.3c0.6,0.3,2.5,1.5,2.5,3.1c0-1.5,2.2-3.1,2.6-3.1c-0.3-0.8-1.4-2.1-0.3-4.4
		C17.9,12.6,15.2,12.5,13.7,12.8z"/>
</g>
</svg>
